HIERARCHY
ROOT Hips
{
    OFFSET 0 0 0
    CHANNELS 6 Xposition Yposition Zposition Zrotation Xrotation Yrotation 
    JOINT LeftHip
    {
        OFFSET 3.3 0 0
        CHANNELS 3 Zrotation Xrotation Yrotation 
        JOINT LeftKnee
        {
            OFFSET 0 -17.8 0
            CHANNELS 1 Xrotation 
            End Site
            {
                OFFSET 0 -16.03 0
            }
        }
    }
    JOINT RightHip
    {
        OFFSET -3.3 0 0
        CHANNELS 3 Zrotation Xrotation Yrotation 
        JOINT RightKnee
        {
            OFFSET 0 -17.7 0
            CHANNELS 1 Xrotation 
            End Site
            {
                OFFSET 0 -16.1 0
            }
        }
    }
    JOINT Chest
    {
        OFFSET 0 4.41 0
        CHANNELS 3 Zrotation Xrotation Yrotation 
        JOINT Neck
        {
            OFFSET 0 16.76 0
            CHANNELS 2 Zrotation Xrotation 
            JOINT Head
            {
                OFFSET 0 4.4 0
                CHANNELS 3 Zrotation Xrotation Yrotation 
                End Site
                {
                    OFFSET 0 3.31 0
                }
            }
        }
        JOINT LeftCollar
        {
            OFFSET 1.01 14.58 1.68
            CHANNELS 2 Zrotation Yrotation 
            JOINT LeftShoulder
            {
                OFFSET 5.89 0 0
                CHANNELS 3 Zrotation Xrotation Yrotation 
                JOINT LeftElbow
                {
                    OFFSET 0 -11.63 0
                    CHANNELS 1 Xrotation 
                    End Site
                    {
                        OFFSET 0 -9.24 0
                    }
                }
            }
        }
        JOINT RightCollar
        {
            OFFSET -1.01 14.58 1.68
            CHANNELS 2 Zrotation Yrotation 
            JOINT RightShoulder
            {
                OFFSET -6.39 0 0
                CHANNELS 3 Zrotation Xrotation Yrotation 
                JOINT RightElbow
                {
                    OFFSET 0 -11.08 0
                    CHANNELS 1 Xrotation 
                    End Site
                    {
                        OFFSET 0 -9.13 0
                    }
                }
            }
        }
    }
}
MOTION
Frames:  25
Frame Time: 0.033333
2.84064	25.073	107.985	-3.30712	-6.48322	-12.4589	8.53669	-40.2447	5.29308	29.7919	-4.32651	40.4467	36.283	8.2594	2.9341	3.61083	10.8529	4.67116	40.5498	-5.88991	-32.1012	0	-18.3846	26.3303	40.499	12.3094	-67.6306	-24.7203	21.7246	-21.6252	-39.556	-29.8207	29.7771	-44.2854	
3.09185	25.5564	110.018	-1.52759	-7.54342	-11.3847	5.99214	-39.3012	8.42135	38.9133	-6.88419	38.7938	36.0181	13.2429	1.29135	3.7259	10.8526	5.41556	40.1535	-6.07393	-31.9768	0	-17.5406	26.1819	40.8674	13.7975	-64.8521	-24.0513	21.8016	-21.8582	-39.2985	-27.7796	29.4887	-45.6561	
3.31961	26.1034	112.012	0.28777	-8.21997	-9.83687	3.49378	-36.5932	11.5062	43.9027	-8.48023	34.9836	32.2314	21.3156	-0.414411	3.71596	10.5344	5.41069	39.7284	-6.13387	-31.8554	0	-16.8276	26.1773	40.7007	13.5651	-61.7979	-23.3353	21.6131	-22.0348	-38.7645	-24.9032	29.8258	-46.0348	
3.52648	26.7632	113.862	1.81033	-8.12005	-8.11839	1.16628	-32.3309	14.064	44.0454	-9.0603	28.2297	26.2002	31.0099	-1.81947	3.22922	10.0025	4.85716	39.4431	-6.21131	-31.9512	0	-16.3659	26.2121	39.9968	11.9192	-59.629	-22.463	21.292	-22.1865	-38.0804	-21.9645	30.9033	-45.4867	
3.71239	27.4911	115.548	2.79315	-7.24014	-6.499	-0.793895	-27.0404	16.1989	40.1166	-8.70678	18.8108	19.529	41.1246	-2.54591	2.3001	9.17753	4.10873	39.4098	-6.44802	-32.4384	0	-16.3412	26.0856	38.6036	9.12053	-55.6568	-21.2777	21.0332	-22.3279	-37.6848	-19.3615	32.7544	-44.1611	
3.86406	28.2072	117.174	3.29799	-6.38896	-4.69968	-2.37364	-20.8475	17.9698	34.1301	-7.62627	8.499	12.9581	49.4843	-2.70886	1.79855	7.8635	3.3097	39.4146	-6.73042	-33.1004	0	-16.5523	25.7733	36.6589	5.28089	-51.2463	-20.1368	20.8072	-22.4153	-37.569	-17.0419	35.1616	-42.3428	
3.99699	28.8162	118.84	3.43152	-6.11086	-2.7543	-3.65439	-14.012	19.4156	27.9147	-6.11824	-0.741394	7.04283	53.7969	-2.4053	2.19761	6.27452	2.58455	39.1996	-6.91548	-33.622	0	-16.5555	25.2753	34.4551	0.732511	-49.3355	-19.5066	20.4656	-22.4078	-37.5338	-14.697	37.5714	-40.3108	
4.10387	29.2655	120.624	3.33505	-6.35467	-0.919206	-4.63778	-6.84486	20.4744	22.2017	-4.70913	-8.1371	2.52449	53.1575	-1.78137	3.22006	4.62822	2.27493	38.7553	-7.09722	-33.7564	0	-16.3801	24.8194	32.437	-4.41497	-49.5968	-19.615	20.1505	-22.3778	-37.6256	-12.1254	39.5625	-38.0778	
4.19768	29.5468	122.505	3.11106	-6.77306	0.961247	-5.22591	0.472642	21.8038	16.6601	-3.71941	-13.7224	-0.704108	48.0716	-0.999838	4.32976	2.8269	2.73498	38.2701	-7.43259	-33.4806	0	-16.1736	24.5815	30.7927	-10.0444	-50.0256	-20.5354	20.0697	-22.2896	-38.102	-9.22424	41.1247	-35.6098	
4.25751	29.6356	124.43	3.0439	-7.00182	3.34764	-5.47029	7.30745	23.164	11.807	-3.49759	-17.9769	-3.32148	39.5746	-0.533169	5.06861	0.801184	3.96433	38.5402	-7.98018	-33.8963	0	-15.7159	24.2544	29.3237	-15.6663	-48.6828	-21.8477	20.4601	-22.2433	-38.9965	-5.9837	41.9905	-33.0238	
4.28337	29.5097	126.34	3.37065	-6.73635	6.4065	-5.42745	12.9099	23.126	8.4895	-4.33451	-21.4565	-5.945	29.0723	-0.76743	5.16087	-1.3881	5.81187	40.3648	-8.76312	-36.2355	0	-15.1438	23.7538	28.0022	-21.0702	-45.9336	-23.0925	21.3993	-22.489	-40.1919	-2.69894	42.0947	-30.4835	
4.26395	29.1765	128.213	3.86398	-6.04479	9.77337	-4.80354	17.3417	19.0637	6.70589	-5.87382	-24.4024	-7.96545	19.4793	-1.51882	4.69592	-3.43535	7.96619	42.9158	-9.77566	-39.7382	0	-14.6131	23.0599	26.9091	-26.1887	-43.6476	-24.6342	22.5805	-22.9354	-41.3898	0.610497	41.4181	-27.89	
4.19219	28.6358	130.058	4.1696	-5.54286	12.9385	-3.35792	21.2049	10.4255	6.46367	-7.51156	-26.9045	-8.45956	13.9146	-2.34835	4.42884	-5.05808	10.0467	44.8769	-10.9759	-42.9664	0	-14.2373	22.4807	26.1205	-30.902	-41.9898	-27.1115	23.7029	-23.2238	-42.2333	3.94701	39.7423	-25.0989	
4.10174	27.9121	131.976	4.16783	-5.46892	15.6636	-1.33664	24.7735	-0.71171	7.93275	-8.81101	-29.1637	-7.5513	12.9587	-2.90954	4.5449	-6.12987	11.6259	46.0128	-12.1113	-45.2828	0	-14.0324	22.1749	25.4516	-34.7625	-40.6483	-30.6385	24.4712	-23.3619	-42.6066	7.11951	37.1118	-22.23	
4.01884	27.0079	134.078	3.82505	-5.47952	17.8866	0.989517	28.0808	-11.7119	10.8951	-9.57607	-31.5475	-4.63783	14.7898	-2.86738	4.52574	-6.57184	12.3085	46.5418	-12.8536	-46.4353	0	-14.1767	22.0818	25.1455	-37.2291	-39.5857	-35.0253	24.8589	-23.5881	-42.7856	9.79548	33.621	-19.5486	
3.91735	26.0478	136.258	2.86011	-5.43649	19.4413	3.79907	31.2081	-21.0191	14.3812	-9.35397	-33.652	-3.21166	18.4917	-2.051	4.26879	-6.59269	12.141	46.4065	-13.0278	-46.3766	0	-14.5468	22.2445	25.1174	-38.1521	-38.8392	-39.5062	24.8395	-23.8192	-42.9833	11.7382	30.4759	-17.5326	
3.81924	26.4292	138.384	1.31344	-6.05178	18.494	6.33498	29.8187	-24.228	20.644	-7.04292	-34.0254	-9.36585	29.1159	-0.563239	3.83438	-6.52622	11.4037	45.4474	-12.5509	-45.1829	0	-14.9649	22.6916	25.4875	-37.4472	-37.7702	-43.1588	24.3128	-23.7076	-43.1712	13.0699	28.951	-16.7013	
3.74331	26.8589	140.536	-0.257457	-6.74845	16.8673	8.69865	26.7427	-22.8432	29.2736	-4.14726	-32.4884	-11.0897	36.0607	1.14783	3.67972	-6.49394	10.5234	43.8421	-11.4875	-43.1487	0	-15.1726	23.1261	25.8807	-35.4034	-35.6068	-46.2681	23.5294	-23.4223	-43.2099	13.5114	29.2172	-16.9829	
3.68198	27.3078	142.511	-1.61039	-7.1799	15.2821	10.4516	22.3169	-19.902	39.2374	-1.10182	-29.5559	-11.0615	39.2066	2.49946	3.70236	-6.43839	9.97021	41.965	-10.0062	-40.7176	0	-15.117	23.4641	26.1116	-32.7095	-33.332	-49.654	22.8572	-23.2458	-43.033	12.7547	30.2963	-17.9842	
3.63766	27.8215	144.271	-2.54836	-7.27017	13.8059	11.1834	16.2337	-16.4732	49.1209	1.80621	-25.2237	-9.73944	38.3712	3.27464	3.90958	-6.09907	9.83665	40.3177	-8.51915	-38.653	0	-15.0154	23.7316	26.1713	-29.9167	-32.5412	-52.7902	22.5511	-23.1655	-42.6278	10.8454	31.3644	-19.348	
3.61491	28.3599	145.898	-3.02373	-7.30613	12.3551	10.7618	9.14606	-12.652	57.0535	4.37137	-19.5722	-7.34424	34.509	3.43644	4.45678	-5.28149	9.99373	39.4453	-7.56456	-37.8309	0	-14.9566	24.0773	26.1759	-27.2978	-33.2817	-54.4051	22.4555	-22.9862	-41.758	8.14262	31.6059	-20.7531	
3.63496	28.8671	147.546	-3.08936	-7.42988	10.8232	9.43468	2.00313	-8.72394	61.2105	6.42151	-12.8111	-3.63188	28.8133	3.07532	5.27413	-3.85832	10.3999	39.5033	-7.42374	-38.1552	0	-14.9444	24.3513	26.3161	-24.8484	-35.1654	-54.108	22.3405	-22.7688	-40.7379	4.86315	31.8569	-22.0317	
3.69457	29.2622	149.328	-2.90723	-7.70525	9.31913	7.678	-4.24349	-4.99489	60.1734	7.8632	-5.31564	1.50423	22.4621	2.35687	6.16371	-2.13248	11.0434	40.3578	-8.15732	-38.8772	0	-15.082	24.4523	26.992	-22.2528	-37.9818	-52.0825	22.1421	-22.4336	-39.6441	1.13425	31.5393	-23.1308	
3.77934	29.4956	151.218	-2.84161	-7.9471	7.40583	6.0578	-9.62048	-1.43116	54.5964	8.67889	2.38111	6.72666	15.9921	1.67927	6.79179	0.0641758	11.4875	41.4667	-9.15045	-39.1994	0	-15.1933	24.4063	27.8902	-19.1807	-41.0428	-48.2397	21.714	-22.0538	-38.5397	-2.89564	30.9901	-24.1859	
3.87339	29.5385	153.15	-3.18698	-7.7138	4.56944	5.19506	-14.7716	1.99962	46.087	8.804	9.52141	10.8342	9.7787	1.3778	6.73707	3.10687	11.0241	42.031	-9.35383	-38.3519	0	-15.5336	24.2643	29.1137	-15.6543	-44.6308	-42.3744	21.2921	-21.8966	-37.8466	-7.23296	31.2691	-25.459	
